<svg xmlns="http://www.w3.org/2000/svg" width="16" height="19" viewBox="0 0 16 19">
    <path fill="#FF8A3D" fill-rule="evenodd" d="M11.772 4.159c2.159 0 3.539 2.088 3.539 2.088s-2.106 1.142-2.106 3.623c0 2.945 2.645 3.802 2.645 3.802s-2.087 4.952-4.431 4.952c-1.318 0-1.406-.758-3.158-.758-1.521 0-2.034.758-3.193.758C2.857 18.624 0 13.797 0 9.87 0 5.792 2.892 4.16 4.706 4.16c1.592 0 2.255.937 3.537.937 1.08 0 1.929-.937 3.53-.937zM11.402 0c.317 1.999-1.496 4.471-3.663 4.39C7.421 1.848 9.756.135 11.401 0z"/>
</svg>
